<svg id="Capa_1" data-name="Capa 1" xmlns="http://www.w3.org/2000/svg" viewBox="0 0 2250 1009.27"><defs><style>.cls-1{fill:#f87616;}</style></defs><path class="cls-1" d="M533.38,904.61c4.32,1.26,7.89,3.45,10,7.67.22.45,1.12.72,1.74.8,1.68.21,3.39.14,5.06.4,7.48,1.2,10.5,7.95,8.5,14.58-.67,2.21-1.7,4.32-2.67,6.7a24.39,24.39,0,0,1,4.95,13.8,7,7,0,0,0,2.08,3.82c4.33,4.49,7.4,9.57,7.8,15.91a5.43,5.43,0,0,1-1.08,3.86c-.54.51-2.47-.1-3.61-.59-3.37-1.46-6.78-2.77-10.5-1.86s-6,3.75-7.68,7.13c-3.31,6.73-2.85,13.92-1.88,20.9,1.55,11.18,4.15,22.2,5.77,33.38,2.35,16.15.46,31.76-8.11,46-6.38,10.62-15.44,18.49-26.32,24.35-10.28,5.54-21.34,8.52-32.77,10.31-2.69.43-5.42.59-8.18.87l.34,26.27c4.84-.06,9.52-.13,14.2-.17,2.76,0,5.52-.19,8.26,0a7.26,7.26,0,0,1,7.14,6.35c.62,3.71-1,6.67-4.62,8.4a4.89,4.89,0,0,0-.72.5l-50.08.64c-4.84-2.14-6.43-4.41-6-8.62a7.32,7.32,0,0,1,6.16-6.48,50.79,50.79,0,0,1,5.08-.35c1.68-.07,3.36-.06,5.17-.08L461,1113.5c-8.1-1.45-16.1-2.45-23.88-4.37C420.34,1105,406,1096.39,394,1084a122.31,122.31,0,0,1-22.71-31.78,19.9,19.9,0,0,1-1.84-5.48,7.17,7.17,0,0,1,4.34-8.06c-2.36-2.77-4.9-5.29-6.91-8.18-4.72-6.84-2.28-13.62,5.62-16.19l1.49-.52c-2.95-3.46-5.94-6.73-8.66-10.2-4.73-6.07-8.86-12.56-10.09-20.32a33.93,33.93,0,0,1,.1-9.33c.33-2.8,1.87-3.28,4.25-1.69,7.51,5,14.86,10.28,22.53,15,14.16,8.74,29,16.12,45.33,19.94,10.84,2.53,21.72,3.19,32.55-.09a41.81,41.81,0,0,0,23.29-17.56c4.49-6.76,6.61-14.46,9.17-22a167.93,167.93,0,0,1,13.26-30.26,2.87,2.87,0,0,0,0-3.44c-2.92-5-4.17-10.27-.59-15.45,2.95-4.26,7.44-6,12.48-6.31a3.63,3.63,0,0,0,3.34-1.74c1.91-2.94,4.92-4.5,8.11-5.72Z" transform="translate(99.68 -262.95)"/><path class="cls-1" d="M1465.82,358.94c-16.63,4.44-30.43,12.29-38.5,27.58-.86,1.64-4.34,2.6-6.73,2.85-6.46.7-13,.38-19.46,1.29-28.81,4.11-40.61,28.58-33.11,52.79,2.51,8.09,6.44,15.78,10.08,24.51-12,14-17.81,31.13-19.38,50.05-.4,4.84-4.31,10.17-8.13,13.86-16.76,16.2-28.73,34.58-30.43,57.67-.36,4.76.82,11.12,4,14.08,2.06,1.9,9.5-.27,13.9-2,13-5.21,26.15-9.83,40.46-6.4,14.69,3.52,23,13.87,29.35,26.24,12.56,24.61,10.58,50.77,6.67,76.14-6.27,40.65-16.6,80.72-23.13,121.34-9.46,58.75-2.63,115.65,30,167.84,24.27,38.9,58.88,67.84,100.6,89.57,39.38,20.51,81.83,31.73,125.76,38.67,10.35,1.63,20.85,2.3,31.44,3.43l-2,95.66c-18.62-.39-36.63-.8-54.65-1.13-10.59-.19-21.23-.88-31.76-.24-15.4.94-25.22,9.58-27.65,22.9-2.47,13.49,3.73,24.3,17.57,30.73a19.64,19.64,0,0,1,2.73,1.86l192.65,4c18.66-7.64,24.84-15.83,23.5-31.17-1-11.76-11-22.11-23.54-23.82-6.44-.88-13-1.15-19.51-1.46s-12.92-.3-19.88-.45l1.94-93.29c31.21-5,62-8.37,92-15.07,64.64-14.46,120-45.36,166.68-89.91,35.59-34,65.66-72,88.24-115a68.7,68.7,0,0,0,7.21-19.86c2.36-13.62-4-23.7-16.47-29.5,9.17-10,19-19.09,26.8-29.56,18.38-24.75,9.15-49.52-21.18-59.16-1.69-.54-3.35-1.13-5.71-1.92,11.47-12.53,23.05-24.31,33.59-36.87,18.39-22,34.43-45.41,39.39-73.63,1.94-11,1.19-22.77-.14-34-1.21-10.2-7.09-12-16.29-6.31-29,18-57.45,36.94-87.11,53.94-54.7,31.36-111.92,57.72-174.89,71.06-41.79,8.86-83.67,10.87-125.24-1.44-38-11.25-67.39-33.2-89.12-64.74-17.06-24.76-25-52.87-34.65-80.46-13.36-38.21-29.18-75.52-50.2-110.63-2.9-4.84-2.86-7.76.13-12.52,11.37-18.12,16.35-37.27,2.69-56.26-11.23-15.6-28.45-22.19-47.83-23.39-5.75-.35-9.46-1.54-12.78-6.45-7.29-10.75-18.83-16.54-31-21.11Z" transform="translate(99.68 -262.95)"/><path class="cls-1" d="M86.63,673c4.32,1.26,7.89,3.45,10,7.67.23.45,1.13.72,1.75.8,1.68.21,3.39.14,5,.4,7.49,1.2,10.51,7.95,8.51,14.58-.67,2.21-1.71,4.32-2.67,6.7a24.31,24.31,0,0,1,4.94,13.8,7,7,0,0,0,2.09,3.82c4.32,4.49,7.4,9.57,7.8,15.91a5.43,5.43,0,0,1-1.08,3.86c-.54.51-2.47-.1-3.61-.59-3.38-1.46-6.78-2.77-10.5-1.86s-6,3.75-7.69,7.13c-3.31,6.73-2.84,13.92-1.88,20.9,1.55,11.18,4.16,22.21,5.78,33.38,2.34,16.15.46,31.76-8.11,46C90.57,856.08,81.52,864,70.64,869.81c-10.28,5.54-21.34,8.52-32.77,10.31-2.69.43-5.43.59-8.18.87L30,907.26c4.84-.06,9.53-.13,14.21-.17,2.75,0,5.52-.19,8.26,0a7.27,7.27,0,0,1,7.14,6.35c.61,3.71-1,6.67-4.63,8.4a4.81,4.81,0,0,0-.71.5L4.2,923c-4.83-2.14-6.42-4.41-6-8.62a7.31,7.31,0,0,1,6.16-6.48,50.58,50.58,0,0,1,5.08-.35c1.67-.07,3.35-.06,5.17-.08l-.33-25.62c-8.1-1.45-16.1-2.45-23.88-4.37-16.77-4.12-31.11-12.74-43.15-25.09A122.08,122.08,0,0,1-75.5,820.6a19.57,19.57,0,0,1-1.84-5.48A7.16,7.16,0,0,1-73,807.06a106.2,106.2,0,0,1-6.91-8.18c-4.73-6.84-2.28-13.62,5.62-16.19l1.49-.52c-3-3.46-6-6.73-8.66-10.2-4.74-6.07-8.86-12.56-10.1-20.32a34.33,34.33,0,0,1,.11-9.33c.33-2.8,1.86-3.28,4.24-1.69,7.52,5,14.86,10.28,22.54,15,14.16,8.75,29,16.12,45.32,19.94,10.85,2.53,21.73,3.19,32.56-.09A41.81,41.81,0,0,0,36.5,757.94c4.48-6.76,6.6-14.46,9.16-22a168.68,168.68,0,0,1,13.27-30.26,2.87,2.87,0,0,0,0-3.44c-2.92-5-4.18-10.27-.59-15.45,3-4.26,7.44-6,12.48-6.31a3.61,3.61,0,0,0,3.33-1.74c1.92-2.93,4.93-4.5,8.11-5.72Z" transform="translate(99.68 -262.95)"/><path class="cls-1" d="M78.79,263c4.31,1.26,7.88,3.45,9.95,7.67.22.45,1.12.72,1.75.8,1.67.21,3.39.14,5.05.4C103,273,106,279.77,104,286.4c-.66,2.21-1.7,4.32-2.66,6.7a24.38,24.38,0,0,1,4.94,13.8,7,7,0,0,0,2.08,3.82c4.33,4.49,7.4,9.57,7.8,15.91a5.38,5.38,0,0,1-1.08,3.86c-.54.51-2.47-.1-3.6-.59-3.38-1.46-6.78-2.77-10.51-1.86s-6,3.75-7.68,7.13c-3.31,6.73-2.85,13.92-1.88,20.9,1.55,11.18,4.16,22.21,5.78,33.38,2.34,16.15.45,31.76-8.12,46C82.73,446.08,73.68,454,62.79,459.81c-10.28,5.54-21.33,8.52-32.77,10.31-2.69.43-5.42.59-8.17.87l.33,26.27c4.84-.06,9.52-.13,14.2-.17,2.76,0,5.52-.19,8.26,0a7.26,7.26,0,0,1,7.14,6.35c.62,3.71-1,6.67-4.62,8.4a4.89,4.89,0,0,0-.72.5L-3.64,513c-4.84-2.14-6.43-4.41-6-8.62a7.32,7.32,0,0,1,6.17-6.48,50.39,50.39,0,0,1,5.07-.35c1.68-.07,3.36-.06,5.17-.08L6.4,471.84c-8.11-1.45-16.11-2.45-23.88-4.37-16.78-4.12-31.11-12.74-43.15-25.09A122.35,122.35,0,0,1-83.35,410.6a19.55,19.55,0,0,1-1.83-5.48,7.15,7.15,0,0,1,4.34-8.06,106.2,106.2,0,0,1-6.91-8.18c-4.73-6.84-2.29-13.62,5.62-16.19l1.48-.52c-2.95-3.46-5.94-6.73-8.65-10.2-4.74-6.07-8.87-12.56-10.1-20.32a34.32,34.32,0,0,1,.1-9.33c.33-2.8,1.87-3.28,4.25-1.69,7.51,5,14.86,10.28,22.54,15,14.15,8.75,29,16.12,45.32,19.94,10.84,2.53,21.73,3.19,32.56-.09a41.85,41.85,0,0,0,23.29-17.56c4.48-6.76,6.6-14.46,9.16-22a168.64,168.64,0,0,1,13.26-30.26,2.85,2.85,0,0,0,0-3.44c-2.92-5-4.17-10.27-.59-15.45,3-4.26,7.44-6,12.48-6.31a3.63,3.63,0,0,0,3.34-1.74c1.91-2.93,4.92-4.5,8.11-5.72Z" transform="translate(99.68 -262.95)"/><path class="cls-1" d="M907.79,905c4.31,1.26,7.88,3.45,10,7.67.22.45,1.12.72,1.75.8,1.67.21,3.39.14,5,.4C932,915,935,921.77,933,928.4c-.66,2.21-1.7,4.32-2.66,6.7a24.38,24.38,0,0,1,4.94,13.8,7,7,0,0,0,2.08,3.82c4.33,4.49,7.4,9.57,7.8,15.91a5.38,5.38,0,0,1-1.08,3.86c-.54.51-2.47-.1-3.6-.59-3.38-1.46-6.78-2.77-10.51-1.86s-6,3.75-7.68,7.13c-3.31,6.73-2.85,13.92-1.88,20.9,1.55,11.18,4.16,22.21,5.78,33.38,2.34,16.15.45,31.76-8.12,46-6.38,10.62-15.43,18.49-26.32,24.35-10.28,5.54-21.33,8.52-32.77,10.31-2.69.43-5.42.59-8.17.87l.33,26.27c4.84-.06,9.52-.13,14.2-.17,2.76,0,5.52-.19,8.26,0a7.26,7.26,0,0,1,7.14,6.35c.62,3.71-1,6.67-4.62,8.4a4.89,4.89,0,0,0-.72.5l-50.08.64c-4.84-2.14-6.43-4.41-6.05-8.62a7.32,7.32,0,0,1,6.17-6.48,50.39,50.39,0,0,1,5.07-.35c1.68-.07,3.36-.06,5.17-.08l-.32-25.62c-8.11-1.45-16.11-2.45-23.88-4.37-16.78-4.12-31.11-12.74-43.15-25.09a122.35,122.35,0,0,1-22.72-31.78,19.55,19.55,0,0,1-1.83-5.48,7.15,7.15,0,0,1,4.34-8.06,106.2,106.2,0,0,1-6.91-8.18c-4.73-6.84-2.29-13.62,5.62-16.19l1.48-.52c-3-3.46-5.94-6.73-8.65-10.2-4.74-6.07-8.87-12.56-10.1-20.32a34.32,34.32,0,0,1,.1-9.33c.33-2.8,1.87-3.28,4.25-1.69,7.51,5,14.86,10.28,22.54,15,14.15,8.75,29,16.12,45.32,19.94,10.84,2.53,21.73,3.19,32.56-.09a41.85,41.85,0,0,0,23.29-17.56c4.48-6.76,6.6-14.46,9.16-22a168.64,168.64,0,0,1,13.26-30.26,2.85,2.85,0,0,0,0-3.44c-2.92-5-4.17-10.27-.59-15.45,2.95-4.26,7.44-6,12.48-6.31a3.63,3.63,0,0,0,3.34-1.74c1.91-2.93,4.92-4.5,8.11-5.72Z" transform="translate(99.68 -262.95)"/></svg>